<svg width="500" height="2308" viewBox="0 0 500 2308" fill="none" xmlns="http://www.w3.org/2000/svg">
<g clip-path="url(#clip0_540_2194)">
<rect width="500" height="2308" fill="#F6D284"/>
<path d="M-80.7615 1425.6C-56.0566 1445.03 -53.1779 1420.64 -54.8267 1406.01L43.7257 1331.58L90.0093 1296.63C352.368 1362.9 253.476 1245.23 127.263 1241.55L110.754 1185.09L-43.0758 1301.27L-113.904 1354.76C-121.537 1360.53 -124.33 1370.74 -119.579 1379.05C-111.505 1393.15 -98.2275 1411.85 -80.7615 1425.6Z" fill="#A6A6A6"/>
<path d="M98.7872 1290L90.0093 1296.63M90.0093 1296.63L43.7257 1331.58L-54.8267 1406.01C-53.1779 1420.64 -56.0566 1445.03 -80.7615 1425.6C-98.2275 1411.85 -111.505 1393.15 -119.579 1379.05C-124.33 1370.74 -121.537 1360.53 -113.904 1354.76L-43.0758 1301.27L110.754 1185.09L127.263 1241.55C253.476 1245.23 352.368 1362.9 90.0093 1296.63Z" stroke="black" stroke-width="3"/>
<rect x="79.9673" y="1153.21" width="100" height="198" transform="rotate(52.939 79.9673 1153.21)" fill="#A6A6A6"/>
<path d="M-172.675 1304.85C-184.612 1275.77 -160.359 1279.68 -146.74 1285.27L-48.1874 1210.84L-1.9038 1175.88C6.13146 905.401 92.2564 1032.71 61.2652 1155.12L111.048 1186.44L-42.7814 1302.62L-113.61 1356.11C-121.242 1361.87 -131.835 1361.77 -138.52 1354.92C-149.88 1343.3 -164.235 1325.41 -172.675 1304.85Z" fill="#A6A6A6"/>
<path d="M6.87413 1169.25L-1.9038 1175.88M-1.9038 1175.88L-48.1874 1210.84L-146.74 1285.27C-160.359 1279.68 -184.612 1275.77 -172.675 1304.85C-164.235 1325.41 -149.88 1343.3 -138.52 1354.92C-131.835 1361.76 -121.242 1361.87 -113.61 1356.11L-42.7814 1302.62L111.048 1186.44L61.2652 1155.12C92.2564 1032.71 6.13146 905.401 -1.9038 1175.88Z" stroke="black" stroke-width="3"/>
<rect width="100" height="198" transform="matrix(-0.602665 -0.797994 -0.797994 0.602665 133.296 1224.78)" fill="#A6A6A6"/>
<path d="M222.5 1284.36C219.066 1283.48 215.13 1285.93 213.994 1290.36C212.859 1294.8 215.129 1298.84 218.563 1299.72C221.997 1300.6 225.934 1298.15 227.069 1293.72C228.205 1289.28 225.934 1285.24 222.5 1284.36Z" fill="#393B3A" stroke="#161815" stroke-width="3"/>
<path d="M44.5779 1048.77C44.4847 1052.31 41.046 1055.43 36.4728 1055.31C31.8996 1055.19 28.6294 1051.9 28.7226 1048.35C28.8158 1044.81 32.2545 1041.69 36.8277 1041.81C41.4008 1041.94 44.6711 1045.23 44.5779 1048.77Z" fill="#393B3A" stroke="#161815" stroke-width="3"/>
<circle r="2.21161" transform="matrix(-0.0689571 -0.99762 -0.99762 0.0689571 230.185 1304.73)" fill="#393B3A" stroke="#161815" stroke-width="2"/>
<circle cx="27.0873" cy="1035.8" r="2.21161" transform="rotate(19.8321 27.0873 1035.8)" fill="#393B3A" stroke="#161815" stroke-width="2"/>
<circle r="2.21161" transform="matrix(-0.0689571 -0.99762 -0.99762 0.0689571 237.369 1297.41)" fill="#393B3A" stroke="#161815" stroke-width="2"/>
<circle cx="36.0893" cy="1030.9" r="2.21161" transform="rotate(19.8321 36.0893 1030.9)" fill="#393B3A" stroke="#161815" stroke-width="2"/>
<circle r="2.21161" transform="matrix(-0.0689571 -0.99762 -0.99762 0.0689571 235.526 1286.91)" fill="#393B3A" stroke="#161815" stroke-width="2"/>
<circle cx="45.6864" cy="1035.54" r="2.21161" transform="rotate(19.8321 45.6864 1035.54)" fill="#393B3A" stroke="#161815" stroke-width="2"/>
<path d="M309.332 1192.96C296.057 1209.99 269.195 1211.67 249.239 1196.11C229.284 1180.56 224.361 1154.1 237.637 1137.07C250.912 1120.04 277.773 1118.36 297.729 1133.91C317.685 1149.47 322.607 1175.93 309.332 1192.96Z" fill="#A6A6A6" stroke="black" stroke-width="3"/>
<ellipse cx="268.76" cy="1165.78" rx="26.2231" ry="25.945" transform="rotate(37.939 268.76 1165.78)" fill="#42260C"/>
<path d="M203.482 1070.46C186.251 1083.47 159.87 1078.14 144.62 1057.95C129.371 1037.76 131.465 1010.93 148.695 997.912C165.925 984.9 192.307 990.227 207.556 1010.42C222.806 1030.61 220.712 1057.44 203.482 1070.46Z" fill="#A6A6A6" stroke="black" stroke-width="3"/>
<ellipse cx="175.618" cy="1037.56" rx="27.6905" ry="24.0787" transform="rotate(52.939 175.618 1037.56)" fill="#42260C"/>
<path d="M235.337 1236.49C188.88 1271.58 121.976 1255.7 82.2582 1203.11C42.5399 1150.52 45.5743 1081.83 92.0313 1046.74C138.521 1011.63 207.343 1026.12 247.032 1078.67C286.721 1131.22 281.827 1201.38 235.337 1236.49Z" fill="#A6A6A6" stroke="black" stroke-width="3"/>
<rect x="22.1387" y="1204.4" width="75" height="109" rx="37.5" transform="rotate(52.939 22.1387 1204.4)" fill="#FFFCFF"/>
<path d="M225.166 1099.2C216.224 1101.7 207.881 1106.29 201.669 1109.8C201.284 1110.02 200.907 1110.24 200.54 1110.44C197.911 1111.93 195.761 1113.15 194.129 1113.9C193.473 1114.2 192.969 1114.39 192.597 1114.49C192.607 1114.45 192.619 1114.41 192.632 1114.37C192.809 1113.77 193.171 1112.97 193.744 1111.98C194.884 1110 196.737 1107.5 199.148 1104.79C203.97 1099.39 210.877 1093.34 218.403 1089.29C226.535 1084.91 233.587 1081.52 239.449 1080.59C242.345 1080.12 244.851 1080.28 247.01 1081.14C249.152 1081.99 251.086 1083.59 252.763 1086.25C253.449 1087.34 253.896 1088.2 254.144 1088.89C254.391 1089.57 254.399 1089.98 254.344 1090.24C254.252 1090.66 253.796 1091.32 251.603 1092.17C249.506 1092.99 246.379 1093.78 241.954 1094.86C241.624 1094.95 241.288 1095.03 240.945 1095.11C236.726 1096.15 231.492 1097.43 225.166 1099.2Z" fill="#26150F" stroke="black" stroke-width="3"/>
<path d="M218.313 1120.7C218.136 1121.51 217.931 1122.16 217.724 1122.64C217.286 1121.78 216.797 1120.49 216.154 1118.81C216.06 1118.56 215.963 1118.3 215.862 1118.04C214.239 1113.79 211.859 1107.82 207.714 1102.33C203.569 1096.84 198.48 1092.92 194.836 1090.2C194.609 1090.03 194.389 1089.86 194.176 1089.7C192.728 1088.63 191.626 1087.8 190.916 1087.15C191.436 1087.08 192.118 1087.06 192.944 1087.11C194.67 1087.22 196.894 1087.62 199.313 1088.41C204.163 1090 209.615 1093.05 213.387 1098.05C217.158 1103.04 218.607 1109.12 218.802 1114.22C218.9 1116.76 218.683 1119.01 218.313 1120.7Z" fill="#26150F" stroke="black" stroke-width="3"/>
<path d="M241.521 1113.67C241.456 1113.81 241.394 1113.94 241.337 1114.04C241.299 1113.98 241.259 1113.9 241.216 1113.82C240.682 1112.82 240.096 1111.26 239.319 1109.19C239.212 1108.91 239.1 1108.61 238.985 1108.31C237.137 1103.41 234.431 1096.55 229.682 1090.27C224.934 1083.98 219.081 1079.5 214.874 1076.38C214.612 1076.19 214.358 1076 214.112 1075.82C212.337 1074.5 210.997 1073.51 210.179 1072.73C210.113 1072.66 210.054 1072.6 210.002 1072.55C210.118 1072.52 210.254 1072.5 210.411 1072.47C211.045 1072.38 211.884 1072.35 212.899 1072.4C214.925 1072.51 217.522 1072.97 220.339 1073.87C225.986 1075.67 232.331 1079.18 236.7 1084.97C241.069 1090.75 242.709 1097.81 242.896 1103.74C242.99 1106.69 242.719 1109.32 242.272 1111.3C242.047 1112.29 241.786 1113.08 241.521 1113.67Z" fill="#26150F" stroke="black" stroke-width="3"/>
<path d="M231.662 1239.27C231.144 1239.66 230.813 1239.81 230.625 1239.85C230.488 1239.88 230.439 1239.87 230.382 1239.84C230.277 1239.78 230.077 1239.64 229.779 1239.25C229.485 1238.87 229.162 1238.34 228.778 1237.64C228.454 1237.05 228.102 1236.37 227.706 1235.59C226.248 1232.74 224.197 1228.73 220.793 1224.22C217.014 1219.22 212.079 1215.26 208.355 1212.27C208.13 1212.09 207.91 1211.91 207.695 1211.74C205.748 1210.17 204.296 1208.97 203.486 1208.01C203.23 1207.71 203.094 1207.49 203.024 1207.36C203.137 1207.32 203.339 1207.26 203.677 1207.23C204.258 1207.19 205.049 1207.24 206.036 1207.41C208.001 1207.75 210.507 1208.52 213.186 1209.61C218.573 1211.8 224.336 1215.13 227.544 1218.37C231.664 1222.52 234.393 1225.61 236.073 1228C237.778 1230.42 238.245 1231.9 238.211 1232.88C238.18 1233.76 237.727 1234.55 236.562 1235.59C235.794 1236.27 234.889 1236.92 233.813 1237.7C233.161 1238.16 232.447 1238.68 231.662 1239.27Z" fill="#26150F" stroke="black" stroke-width="3"/>
<path d="M88.3974 1049.57C87.88 1049.97 87.6506 1050.24 87.5554 1050.41C87.4857 1050.54 87.4899 1050.59 87.5018 1050.65C87.524 1050.77 87.6111 1051 87.9015 1051.39C88.1876 1051.78 88.6038 1052.23 89.1722 1052.79C89.6515 1053.27 90.2179 1053.79 90.8545 1054.39C93.1989 1056.57 96.4961 1059.64 99.9009 1064.15C103.679 1069.15 106.137 1074.98 107.993 1079.38C108.104 1079.64 108.214 1079.9 108.322 1080.16C109.296 1082.46 110.059 1084.19 110.756 1085.23C110.976 1085.56 111.145 1085.75 111.256 1085.85C111.328 1085.75 111.436 1085.57 111.555 1085.26C111.759 1084.71 111.927 1083.94 112.034 1082.94C112.245 1080.96 112.187 1078.33 111.873 1075.46C111.24 1069.68 109.61 1063.22 107.377 1059.25C104.51 1054.15 102.283 1050.68 100.447 1048.41C98.5836 1046.11 97.2858 1045.26 96.3337 1045.02C95.4786 1044.81 94.5929 1045.03 93.2766 1045.87C92.4092 1046.42 91.5371 1047.11 90.4999 1047.94C89.8715 1048.43 89.1826 1048.98 88.3974 1049.57Z" fill="#26150F" stroke="black" stroke-width="3"/>
<path d="M26.1537 1343.88C26.4916 1343.59 26.5561 1343.42 26.5683 1343.38L26.5687 1343.38C26.5743 1343.36 26.599 1343.28 26.5028 1343.05C26.2501 1342.43 25.5004 1341.54 23.9922 1340.08C23.3724 1339.48 22.6565 1338.82 21.8569 1338.07C18.9511 1335.37 14.9394 1331.63 10.4169 1326.33C5.40909 1320.45 1.4609 1313.88 -1.56419 1308.84C-1.74292 1308.54 -1.91843 1308.25 -2.09074 1307.96C-3.65816 1305.35 -4.92087 1303.3 -5.95333 1301.99C-6.21933 1301.65 -6.44608 1301.4 -6.63493 1301.21C-6.66277 1301.75 -6.61429 1302.5 -6.46794 1303.45C-6.13951 1305.59 -5.36854 1308.47 -4.27549 1311.65C-2.08673 1318.02 1.297 1325.34 4.66636 1330.09C8.87943 1336.03 12.0492 1340.16 14.526 1342.94C17.038 1345.75 18.698 1347.02 19.868 1347.48C20.4105 1347.69 20.8173 1347.72 21.1582 1347.66C21.5157 1347.6 21.9079 1347.44 22.3903 1347.12C22.8823 1346.8 23.405 1346.35 24.0377 1345.78C24.2008 1345.63 24.372 1345.47 24.5505 1345.31C25.0372 1344.87 25.5775 1344.37 26.1537 1343.88ZM-6.52668 1300.55C-6.52669 1300.55 -6.52711 1300.55 -6.52788 1300.55C-6.52705 1300.55 -6.52666 1300.55 -6.52668 1300.55Z" fill="#26150F" stroke="black" stroke-width="3"/>
<path d="M195.534 1254.15C195.035 1254.25 194.788 1254.23 194.692 1254.21C194.659 1254.2 194.659 1254.2 194.66 1254.2C194.66 1254.19 194.661 1254.19 194.659 1254.19C194.622 1254.14 194.531 1253.98 194.448 1253.58C194.367 1253.19 194.313 1252.67 194.275 1251.99C194.243 1251.42 194.224 1250.76 194.203 1250.02C194.126 1247.28 194.017 1243.41 193.075 1238.65C192.029 1233.36 189.753 1228.44 188.042 1224.74C187.938 1224.52 187.837 1224.3 187.738 1224.08C186.842 1222.14 186.197 1220.68 185.936 1219.65C185.908 1219.54 185.886 1219.44 185.869 1219.35C185.897 1219.36 185.926 1219.38 185.956 1219.39C186.375 1219.56 186.925 1219.88 187.59 1220.38C188.912 1221.38 190.489 1222.91 192.089 1224.75C195.308 1228.46 198.396 1233.18 199.628 1236.85C201.054 1241.09 201.905 1244.24 202.278 1246.6C202.655 1248.99 202.513 1250.38 202.153 1251.24C201.83 1252.01 201.254 1252.53 200.187 1252.98C199.049 1253.45 197.548 1253.75 195.534 1254.15Z" fill="#26150F" stroke="black" stroke-width="3"/>
<path d="M135.992 1305.77C135.929 1305.75 135.876 1305.72 135.832 1305.71C135.904 1305.52 136.023 1305.27 136.208 1304.93C136.374 1304.63 136.58 1304.28 136.813 1303.89C137.696 1302.39 138.982 1300.2 140.067 1297.25C141.276 1293.97 141.62 1290.46 141.873 1287.88C141.889 1287.72 141.904 1287.56 141.919 1287.41C141.993 1286.67 142.06 1286.06 142.133 1285.56C142.143 1285.58 142.153 1285.6 142.163 1285.62C142.579 1286.57 142.973 1287.9 143.278 1289.42C143.895 1292.5 144.085 1296.02 143.588 1298.3C142.986 1301.07 142.425 1303.02 141.865 1304.37C141.296 1305.73 140.799 1306.31 140.434 1306.56C140.135 1306.76 139.758 1306.85 139.038 1306.73C138.258 1306.6 137.317 1306.26 135.992 1305.77ZM135.619 1305.59C135.619 1305.59 135.626 1305.6 135.636 1305.61C135.623 1305.6 135.618 1305.59 135.619 1305.59ZM141.479 1284.49C141.479 1284.49 141.48 1284.49 141.481 1284.49C141.48 1284.49 141.479 1284.49 141.479 1284.49Z" fill="#26150F" stroke="black" stroke-width="3"/>
<path d="M3.24254 1121.69C3.24755 1121.76 3.25342 1121.82 3.25957 1121.86C3.459 1121.85 3.72989 1121.8 4.10515 1121.71C4.44126 1121.64 4.83301 1121.53 5.27872 1121.42C6.96226 1120.98 9.41569 1120.34 12.5484 1120.1C16.0388 1119.84 19.5092 1120.47 22.0558 1120.93C22.2149 1120.96 22.3705 1120.99 22.5222 1121.01C23.2539 1121.15 23.8633 1121.25 24.3631 1121.32C24.3445 1121.3 24.3255 1121.28 24.3062 1121.27C23.5107 1120.61 22.3403 1119.87 20.9586 1119.16C18.1664 1117.72 14.8336 1116.58 12.5004 1116.43C9.67418 1116.25 7.6483 1116.26 6.19776 1116.43C4.72628 1116.6 4.0373 1116.92 3.70124 1117.2C3.4259 1117.44 3.23291 1117.77 3.15296 1118.5C3.06622 1119.29 3.13604 1120.28 3.24254 1121.69ZM3.31066 1122.1C3.31103 1122.1 3.30852 1122.09 3.302 1122.08C3.30703 1122.09 3.31029 1122.1 3.31066 1122.1ZM25.2123 1122.24C25.2124 1122.24 25.212 1122.24 25.2112 1122.23C25.2119 1122.24 25.2123 1122.24 25.2123 1122.24Z" fill="#26150F" stroke="black" stroke-width="3"/>
<path d="M64.6874 1064.25C64.6644 1064.26 64.6405 1064.27 64.6156 1064.28C64.4081 1064.38 64.1602 1064.51 63.8733 1064.65C62.7489 1065.22 61.0251 1066.1 58.7868 1066.7C56.2807 1067.37 53.6959 1067.25 51.8708 1067.16C51.7514 1067.16 51.6353 1067.15 51.5226 1067.15C51.4545 1067.14 51.3884 1067.14 51.324 1067.14C51.862 1067.46 52.5209 1067.79 53.2566 1068.1C55.3582 1068.98 57.7348 1069.51 59.2539 1069.37C61.2404 1069.18 62.6081 1068.93 63.5421 1068.64C64.4827 1068.34 64.7976 1068.04 64.9116 1067.88C65.0108 1067.74 65.122 1067.48 65.0934 1066.83C65.0646 1066.17 64.9107 1065.37 64.6874 1064.25ZM64.5649 1063.78C64.5647 1063.78 64.5675 1063.79 64.5741 1063.8C64.5684 1063.79 64.5651 1063.78 64.5649 1063.78ZM65.1464 1064.07C65.1499 1064.07 65.1517 1064.07 65.1517 1064.07C65.1518 1064.07 65.1501 1064.07 65.1464 1064.07ZM49.5099 1067.18C49.5102 1067.18 49.5152 1067.18 49.5243 1067.17C49.5142 1067.18 49.5096 1067.18 49.5099 1067.18Z" fill="#26150F" stroke="black" stroke-width="3"/>
<path d="M150.923 1308.77C150.962 1308.7 151.007 1308.61 151.062 1308.51C151.189 1308.29 151.35 1308.03 151.534 1307.72C152.246 1306.55 153.314 1304.8 154.183 1302.44C155.153 1299.8 155.372 1296.97 155.53 1294.94C155.54 1294.81 155.55 1294.68 155.56 1294.56C155.573 1294.39 155.586 1294.23 155.598 1294.08C155.85 1294.73 156.089 1295.5 156.294 1296.36C156.877 1298.8 157.098 1301.54 156.745 1303.26C156.297 1305.43 155.872 1306.93 155.444 1307.96C155.009 1308.99 154.644 1309.35 154.429 1309.49C154.262 1309.59 154.005 1309.67 153.4 1309.56C152.769 1309.44 152.005 1309.17 150.923 1308.77ZM150.537 1308.6C150.537 1308.6 150.543 1308.61 150.552 1308.61C150.541 1308.61 150.536 1308.6 150.537 1308.6ZM150.755 1309.16C150.755 1309.16 150.755 1309.16 150.755 1309.16C150.754 1309.16 150.755 1309.16 150.755 1309.16ZM155.882 1292.24C155.882 1292.24 155.881 1292.24 155.879 1292.24C155.881 1292.24 155.882 1292.24 155.882 1292.24ZM154.754 1292.55C154.75 1292.54 154.748 1292.54 154.748 1292.54C154.748 1292.54 154.75 1292.54 154.754 1292.55Z" fill="#26150F" stroke="black" stroke-width="3"/>
<path d="M4.44056 1106.51C4.52259 1106.49 4.61662 1106.47 4.72448 1106.45C4.97575 1106.39 5.2736 1106.3 5.61577 1106.21C6.93516 1105.84 8.91354 1105.3 11.4216 1105.11C14.2241 1104.89 17.0074 1105.46 19.0055 1105.86C19.1337 1105.89 19.2587 1105.91 19.3802 1105.94C19.5441 1105.97 19.699 1106 19.8453 1106.03C19.297 1105.61 18.6155 1105.17 17.8458 1104.74C15.6591 1103.51 13.0888 1102.55 11.3376 1102.42C9.12261 1102.25 7.56092 1102.25 6.46102 1102.38C5.34558 1102.52 4.89761 1102.77 4.7114 1102.94C4.56688 1103.07 4.42045 1103.3 4.36169 1103.91C4.30039 1104.55 4.35398 1105.36 4.44056 1106.51ZM4.49642 1106.93C4.49667 1106.93 4.49493 1106.92 4.49049 1106.91C4.49396 1106.92 4.49618 1106.93 4.49642 1106.93ZM4.02051 1106.56C4.01808 1106.56 4.0168 1106.56 4.01677 1106.56C4.01673 1106.56 4.01794 1106.56 4.02051 1106.56ZM21.6989 1106.26C21.6989 1106.26 21.6965 1106.26 21.6922 1106.26C21.6968 1106.26 21.699 1106.26 21.6989 1106.26ZM21.0944 1107.26C21.096 1107.27 21.0971 1107.27 21.0972 1107.27C21.0973 1107.27 21.0965 1107.27 21.0944 1107.26Z" fill="#26150F" stroke="black" stroke-width="3"/>
<path d="M64.2009 1080.25C63.9698 1080.7 63.9233 1080.95 63.9186 1081.05C63.917 1081.08 63.9171 1081.08 63.9193 1081.08C63.9201 1081.08 63.9213 1081.08 63.9227 1081.08C63.9614 1081.13 64.0925 1081.26 64.4543 1081.45C64.8088 1081.64 65.2894 1081.83 65.9329 1082.05C66.4731 1082.24 67.1013 1082.44 67.8086 1082.66C70.4218 1083.48 74.1147 1084.65 78.437 1086.86C83.2365 1089.31 87.3488 1092.85 90.4406 1095.5C90.628 1095.67 90.8116 1095.82 90.9914 1095.98C92.6157 1097.37 93.8435 1098.39 94.7561 1098.92C94.8561 1098.98 94.9462 1099.03 95.0267 1099.07C95.0243 1099.04 95.0213 1099.01 95.0175 1098.97C94.9665 1098.52 94.8047 1097.91 94.5067 1097.13C93.9139 1095.59 92.8734 1093.65 91.5362 1091.61C88.8471 1087.5 85.1512 1083.24 81.9615 1081.05C78.2695 1078.51 75.4745 1076.83 73.3067 1075.83C71.1166 1074.81 69.7364 1074.57 68.8118 1074.68C67.9833 1074.78 67.3223 1075.19 66.604 1076.1C65.8375 1077.06 65.1354 1078.42 64.2009 1080.25Z" fill="#26150F" stroke="black" stroke-width="3"/>
<path d="M46.2256 1329.91C46.377 1329.79 46.4483 1329.71 46.4791 1329.67C46.4762 1329.66 46.4723 1329.65 46.4669 1329.63C46.4172 1329.49 46.2862 1329.24 45.9848 1328.86C45.6903 1328.48 45.2879 1328.04 44.7641 1327.5C44.3183 1327.05 43.7992 1326.54 43.2176 1325.96C41.091 1323.87 38.1292 1320.95 34.862 1316.84C31.2402 1312.27 28.4973 1307.19 26.4107 1303.32C26.2862 1303.09 26.1641 1302.87 26.0442 1302.64C24.9867 1300.69 24.1443 1299.17 23.441 1298.19C23.4428 1298.44 23.4565 1298.74 23.4845 1299.07C23.6187 1300.67 24.055 1302.84 24.7297 1305.26C26.0819 1310.11 28.3095 1315.67 30.652 1319.28C33.3087 1323.37 35.3966 1326.29 37.1069 1328.33C38.8372 1330.38 40.0798 1331.41 41.0173 1331.86C41.8348 1332.25 42.4444 1332.22 43.149 1331.93C43.9915 1331.59 44.8977 1330.92 46.2256 1329.91ZM46.4867 1329.71C46.4868 1329.71 46.4867 1329.7 46.4866 1329.7L46.4867 1329.71ZM23.5711 1297.04C23.5709 1297.04 23.5678 1297.04 23.5628 1297.05C23.5689 1297.04 23.5714 1297.04 23.5711 1297.04Z" fill="#26150F" stroke="black" stroke-width="3"/>
<path d="M65.8631 1315.07C65.998 1314.96 66.0454 1314.9 66.0595 1314.87C66.0607 1314.85 66.0561 1314.74 65.95 1314.5C65.6378 1313.79 64.8176 1312.76 63.3182 1311.14C62.6932 1310.47 61.9751 1309.71 61.1745 1308.88C58.2759 1305.84 54.2948 1301.67 49.726 1295.92C44.6702 1289.55 40.5525 1282.66 37.384 1277.36C37.1979 1277.05 37.015 1276.74 36.8354 1276.44C35.1992 1273.71 33.8673 1271.52 32.7962 1270.08C32.6829 1269.93 32.5758 1269.79 32.4746 1269.66C32.5252 1270.04 32.6009 1270.46 32.7043 1270.95C33.1582 1273.07 34.0767 1275.97 35.3153 1279.2C37.7935 1285.66 41.4615 1293.24 44.9588 1298.35C48.8469 1304.03 51.8723 1308.16 54.304 1311.1C56.7545 1314.05 58.5206 1315.7 59.8755 1316.53C61.1424 1317.31 61.9416 1317.31 62.6479 1317.09C63.536 1316.82 64.4497 1316.14 65.8631 1315.07ZM66.0646 1314.86C66.0643 1314.86 66.0627 1314.87 66.061 1314.87C66.0641 1314.87 66.065 1314.86 66.0646 1314.86ZM66.0592 1314.88C66.0589 1314.88 66.0588 1314.88 66.0588 1314.88C66.0589 1314.88 66.059 1314.88 66.0592 1314.88ZM31.431 1268.61C31.4313 1268.61 31.439 1268.62 31.4537 1268.62C31.4381 1268.61 31.4308 1268.61 31.431 1268.61Z" fill="#26150F" stroke="black" stroke-width="3"/>
<path d="M183.69 1163.83C181.209 1160.54 177.577 1157.88 174.816 1155.86C174.545 1155.66 174.282 1155.47 174.029 1155.28C172.539 1154.18 171.509 1153.37 170.995 1152.74C170.99 1152.74 170.985 1152.73 170.98 1152.73C171.463 1152.49 172.336 1152.25 173.62 1152.16C175.146 1152.05 177.035 1152.16 179.037 1152.58C183.064 1153.42 187.327 1155.43 190.044 1159.03C192.761 1162.63 193.534 1167.28 193.238 1171.38C193.091 1173.42 192.683 1175.27 192.159 1176.71C191.725 1177.9 191.263 1178.67 190.908 1179.08C190.572 1178.49 190.198 1177.49 189.667 1176C189.631 1175.9 189.594 1175.79 189.557 1175.69C188.434 1172.52 186.824 1167.98 183.69 1163.83ZM191.16 1179.44C191.16 1179.44 191.158 1179.44 191.156 1179.43C191.158 1179.44 191.16 1179.44 191.16 1179.44Z" fill="black" stroke="black" stroke-width="3"/>
<path d="M143.249 1110.28C140.767 1106.99 137.135 1104.33 134.374 1102.31C134.103 1102.11 133.84 1101.92 133.587 1101.73C132.097 1100.63 131.067 1099.82 130.553 1099.19C130.548 1099.19 130.543 1099.18 130.538 1099.18C131.022 1098.94 131.895 1098.7 133.178 1098.61C134.704 1098.5 136.593 1098.61 138.595 1099.03C142.622 1099.87 146.886 1101.88 149.603 1105.48C152.32 1109.08 153.092 1113.73 152.796 1117.83C152.649 1119.87 152.241 1121.72 151.717 1123.16C151.283 1124.35 150.821 1125.12 150.466 1125.53C150.13 1124.94 149.756 1123.94 149.225 1122.45C149.189 1122.35 149.152 1122.24 149.115 1122.14C147.992 1118.97 146.382 1114.43 143.249 1110.28ZM150.718 1125.89C150.718 1125.89 150.717 1125.89 150.714 1125.88C150.717 1125.89 150.718 1125.89 150.718 1125.89Z" fill="black" stroke="black" stroke-width="3"/>
<ellipse rx="13.6697" ry="13.1658" transform="matrix(-0.122926 -0.992416 -0.992416 0.122926 124.589 1182.16)" fill="white"/>
<ellipse cx="110.077" cy="1162.94" rx="13.6697" ry="13.1658" transform="rotate(22.939 110.077 1162.94)" fill="white"/>
<path d="M132.058 1169.66C131.161 1170.34 129.618 1170.67 127.873 1170.34C126.162 1170.02 124.464 1169.1 123.315 1167.58C122.167 1166.06 121.747 1164.17 121.908 1162.44C122.072 1160.67 122.811 1159.28 123.708 1158.6C124.547 1157.97 125.779 1157.78 127.239 1158.24C128.697 1158.7 130.254 1159.77 131.489 1161.41C132.725 1163.04 133.331 1164.83 133.371 1166.36C133.412 1167.89 132.897 1169.02 132.058 1169.66Z" fill="black" stroke="black" stroke-width="3"/>
<circle cx="134.15" cy="1124.7" r="10.5394" transform="rotate(52.939 134.15 1124.7)" fill="black" stroke="black" stroke-width="3"/>
<circle cx="167.527" cy="1168.89" r="10.5394" transform="rotate(52.939 167.527 1168.89)" fill="black" stroke="black" stroke-width="3"/>
<g filter="url(#filter0_d_540_2194)">
<path d="M273.232 1312.61C267.579 1316.88 260.747 1317.56 253.852 1315.3C246.924 1313.04 239.966 1307.81 234.331 1300.35C228.689 1292.88 225.699 1285.08 225.566 1278.1C225.434 1271.18 228.109 1265.01 233.954 1260.6C239.8 1256.18 246.464 1255.3 253.089 1257.32C259.762 1259.35 266.449 1264.37 272.091 1271.84C277.726 1279.3 280.849 1287.42 281.13 1294.7C281.409 1301.95 278.886 1308.34 273.232 1312.61Z" fill="#F4842E" stroke="#D17F2F" stroke-width="3"/>
<path d="M273.854 1267.23C275.176 1266.23 277.057 1266.5 278.056 1267.82L278.353 1268.21C279.351 1269.53 279.089 1271.41 277.767 1272.41L274.979 1274.52L271.066 1269.34L273.854 1267.23Z" fill="#B4B663"/>
<path d="M282.461 1285.18C279.69 1269.89 267.085 1260.33 259.915 1258.16C257.167 1257.4 253.689 1257.84 266.581 1269.92C266.923 1270.24 267.009 1270.76 266.785 1271.17C264.376 1275.61 262.697 1281.94 272.601 1279.17C273.122 1279.02 273.676 1279.3 273.867 1279.8C275.394 1283.85 278.237 1289.24 280.468 1290.28C282.53 1291.24 282.867 1287.42 282.461 1285.18Z" fill="#4E4A0B" stroke="#585414" stroke-width="2.5"/>
</g>
<g filter="url(#filter1_d_540_2194)">
<path d="M68.1313 1042.69C62.4779 1046.96 55.6463 1047.64 48.7507 1045.39C41.8228 1043.12 34.8648 1037.9 29.2295 1030.44C23.5879 1022.97 20.5974 1015.16 20.4648 1008.19C20.3331 1001.26 23.008 995.094 28.8533 990.679C34.6986 986.265 41.3634 985.379 47.9883 987.401C54.6608 989.436 61.3481 994.448 66.9896 1001.92C72.6249 1009.38 75.7478 1017.5 76.0288 1024.78C76.3084 1032.03 73.7848 1038.42 68.1313 1042.69Z" fill="#F4842E" stroke="#D17F2F" stroke-width="3"/>
<path d="M68.7525 997.314C70.0747 996.315 71.956 996.578 72.9545 997.9L73.2514 998.293C74.25 999.615 73.9876 1001.5 72.6655 1002.5L69.8783 1004.6L65.9653 999.419L68.7525 997.314Z" fill="#B4B663"/>
<path d="M77.36 1015.26C74.5886 999.973 61.9842 990.413 54.8135 988.242C52.0661 987.479 48.5874 987.925 61.4801 999.997C61.8221 1000.32 61.908 1000.84 61.6843 1001.25C59.2751 1005.69 57.5961 1012.02 67.5 1009.25C68.0213 1009.11 68.5746 1009.38 68.7657 1009.89C70.2927 1013.93 73.1357 1019.32 75.3665 1020.36C77.4286 1021.32 77.7655 1017.5 77.36 1015.26Z" fill="#4E4A0B" stroke="#585414" stroke-width="2.5"/>
</g>
<path d="M708.834 556.681C717.106 526.354 693.517 533.211 680.688 540.431L573.734 478.681L523.505 449.681C482.281 182.24 412.459 319.173 458.262 436.84L412.708 474.047L579.651 570.432L656.518 614.811C664.801 619.593 675.3 618.183 681.093 610.572C690.939 597.638 702.986 578.122 708.834 556.681Z" fill="#A6A6A6"/>
<path d="M513.978 444.181L523.505 449.681M523.505 449.681L573.734 478.681L680.688 540.431C693.517 533.211 717.106 526.354 708.834 556.681C702.986 578.122 690.939 597.638 681.093 610.572C675.3 618.183 664.801 619.593 656.518 614.811L579.651 570.432L412.708 474.047L458.262 436.84C412.459 319.173 482.281 182.24 523.505 449.681Z" stroke="black" stroke-width="3"/>
<rect x="395.34" y="514.827" width="100" height="198" transform="rotate(-60 395.34 514.827)" fill="#A6A6A6"/>
<path d="M633.46 688.387C611.332 710.715 605.476 686.857 605.314 672.137L498.36 610.387L448.131 581.387C195.908 679.407 279.585 550.473 404.389 531.306L413.834 473.252L580.777 569.637L657.644 614.016C665.927 618.798 669.956 628.595 666.261 637.417C659.982 652.411 649.104 672.602 633.46 688.387Z" fill="#A6A6A6"/>
<path d="M438.604 575.887L448.131 581.387M448.131 581.387L498.36 610.387L605.314 672.137C605.476 686.857 611.332 710.715 633.46 688.387C649.104 672.602 659.982 652.411 666.261 637.417C669.956 628.595 665.927 618.798 657.644 614.016L580.777 569.637L413.834 473.252L404.389 531.306C279.585 550.473 195.908 679.407 448.131 581.387Z" stroke="black" stroke-width="3"/>
<rect width="100" height="198" transform="matrix(-0.5 0.866025 0.866025 0.5 440.467 437.82)" fill="#A6A6A6"/>
<path d="M460.568 332.45C461.096 335.955 464.891 338.623 469.415 337.942C473.939 337.26 476.78 333.592 476.251 330.087C475.723 326.582 471.928 323.914 467.404 324.595C462.88 325.277 460.04 328.945 460.568 332.45Z" fill="#393B3A" stroke="#161815" stroke-width="3"/>
<path d="M312.955 588.123C316.254 586.828 320.463 588.781 322.135 593.039C323.806 597.298 322.05 601.592 318.75 602.887C315.451 604.183 311.242 602.23 309.57 597.971C307.899 593.713 309.655 589.419 312.955 588.123Z" fill="#393B3A" stroke="#161815" stroke-width="3"/>
<circle r="2.21161" transform="matrix(-0.891852 0.452327 0.452327 0.891852 476.332 317.433)" fill="#393B3A" stroke="#161815" stroke-width="2"/>
<circle cx="307.832" cy="609.284" r="2.21161" transform="rotate(-93.1069 307.832 609.284)" fill="#393B3A" stroke="#161815" stroke-width="2"/>
<circle r="2.21161" transform="matrix(-0.891852 0.452327 0.452327 0.891852 466.795 313.67)" fill="#393B3A" stroke="#161815" stroke-width="2"/>
<circle cx="299.803" cy="602.906" r="2.21161" transform="rotate(-93.1069 299.803 602.906)" fill="#393B3A" stroke="#161815" stroke-width="2"/>
<circle r="2.21161" transform="matrix(-0.891852 0.452327 0.452327 0.891852 457.842 319.46)" fill="#393B3A" stroke="#161815" stroke-width="2"/>
<circle cx="300.341" cy="592.258" r="2.21161" transform="rotate(-93.1069 300.341 592.258)" fill="#393B3A" stroke="#161815" stroke-width="2"/>
<path d="M342.554 288.108C363.411 293.696 375.429 317.778 368.88 342.219C362.331 366.66 339.882 381.505 319.026 375.917C298.17 370.329 286.151 346.247 292.7 321.806C299.249 297.365 321.698 282.519 342.554 288.108Z" fill="#A6A6A6" stroke="black" stroke-width="3"/>
<ellipse cx="333.341" cy="336.063" rx="26.2231" ry="25.945" transform="rotate(-75 333.341 336.063)" fill="#42260C"/>
<path d="M270.993 433.334C289.692 444.13 295.068 470.501 282.417 492.414C269.765 514.328 244.238 522.857 225.539 512.061C206.84 501.265 201.464 474.894 214.115 452.981C226.767 431.067 252.293 422.538 270.993 433.334Z" fill="#A6A6A6" stroke="black" stroke-width="3"/>
<ellipse cx="251.555" cy="471.816" rx="27.6905" ry="24.0787" transform="rotate(-60 251.555 471.816)" fill="#42260C"/>
<path d="M411.484 339.283C461.902 368.392 473.358 436.193 440.405 493.268C407.453 550.343 343.008 574.322 292.591 545.213C242.137 516.084 228.656 447.058 261.584 390.025C294.512 332.992 361.031 310.154 411.484 339.283Z" fill="#A6A6A6" stroke="black" stroke-width="3"/>
<rect x="465.023" y="548.131" width="75" height="109" rx="37.5" transform="rotate(-60 465.023 548.131)" fill="#FFFCFF"/>
<path d="M289.012 402.16C294.8 409.421 302.279 415.315 307.936 419.666C308.287 419.936 308.63 420.2 308.964 420.457C311.362 422.297 313.322 423.802 314.644 425.015C315.175 425.502 315.547 425.892 315.789 426.194C315.748 426.2 315.705 426.206 315.659 426.211C315.043 426.28 314.161 426.26 313.025 426.118C310.764 425.837 307.736 425.107 304.306 423.94C297.444 421.608 289.185 417.604 282.519 412.252C275.319 406.47 269.45 401.296 266.304 396.262C264.749 393.775 263.915 391.407 263.865 389.084C263.815 386.779 264.533 384.375 266.333 381.792C267.069 380.735 267.684 379.99 268.222 379.493C268.758 378.998 269.132 378.831 269.384 378.783C269.812 378.703 270.595 378.867 272.235 380.554C273.804 382.167 275.752 384.738 278.477 388.39C278.68 388.662 278.887 388.939 279.098 389.222C281.695 392.705 284.917 397.025 289.012 402.16Z" fill="#26150F" stroke="black" stroke-width="3"/>
<path d="M311.484 400.091C312.298 399.939 312.977 399.874 313.501 399.877C312.878 400.617 311.885 401.568 310.58 402.818C310.389 403.001 310.191 403.191 309.986 403.387C306.704 406.538 302.137 411.055 298.697 417.012C295.258 422.969 293.63 429.183 292.542 433.601C292.474 433.876 292.409 434.143 292.346 434.4C291.916 436.155 291.589 437.49 291.26 438.4C290.996 437.948 290.712 437.327 290.437 436.546C289.862 434.915 289.371 432.708 289.155 430.173C288.722 425.09 289.412 418.877 292.541 413.458C295.67 408.038 300.705 404.334 305.323 402.168C307.627 401.087 309.784 400.409 311.484 400.091Z" fill="#26150F" stroke="black" stroke-width="3"/>
<path d="M295.963 381.459C296.121 381.463 296.259 381.472 296.377 381.484C296.332 381.544 296.281 381.609 296.223 381.68C295.508 382.563 294.301 383.71 292.7 385.231C292.479 385.442 292.25 385.659 292.013 385.885C288.222 389.496 282.963 394.66 279.024 401.483C275.084 408.307 273.241 415.443 272.01 420.532C271.933 420.849 271.859 421.157 271.787 421.454C271.27 423.6 270.88 425.219 270.474 426.28C270.441 426.366 270.41 426.443 270.38 426.512C270.311 426.415 270.234 426.3 270.152 426.165C269.817 425.617 269.46 424.858 269.115 423.901C268.428 421.992 267.837 419.422 267.566 416.478C267.024 410.576 267.784 403.365 271.408 397.087C275.033 390.809 280.898 386.545 286.281 384.064C288.966 382.826 291.487 382.053 293.484 381.693C294.484 381.514 295.321 381.443 295.963 381.459Z" fill="#26150F" stroke="black" stroke-width="3"/>
<path d="M415.475 341.587C416.036 341.911 416.298 342.159 416.413 342.314C416.498 342.428 416.5 342.48 416.496 342.544C416.488 342.662 416.43 342.903 416.19 343.328C415.954 343.747 415.596 344.249 415.101 344.875C414.684 345.404 414.187 345.997 413.628 346.663C411.569 349.118 408.675 352.57 405.85 357.462C402.715 362.892 400.992 368.979 399.692 373.574C399.613 373.851 399.537 374.123 399.461 374.388C398.778 376.792 398.232 378.599 397.668 379.718C397.49 380.071 397.346 380.279 397.249 380.397C397.165 380.309 397.036 380.144 396.879 379.844C396.609 379.328 396.347 378.579 396.119 377.604C395.666 375.662 395.401 373.053 395.359 370.161C395.277 364.347 396.101 357.741 397.829 353.526C400.047 348.113 401.831 344.395 403.374 341.917C404.94 339.404 406.123 338.395 407.039 338.045C407.862 337.73 408.768 337.838 410.177 338.508C411.105 338.949 412.056 339.529 413.187 340.219C413.872 340.636 414.623 341.095 415.475 341.587Z" fill="#26150F" stroke="black" stroke-width="3"/>
<path d="M500.225 611.14C499.977 610.989 499.943 610.889 499.935 610.865L499.935 610.864C499.919 610.817 499.881 610.651 499.984 610.265C500.208 609.429 500.901 608.214 502.132 606.443C502.816 605.457 503.643 604.334 504.571 603.074C506.835 599.997 509.703 596.1 512.587 591.379C516.829 584.435 520.566 576.541 523.629 570.07C524.011 569.262 524.383 568.475 524.745 567.716C526.385 564.267 527.784 561.412 528.939 559.483C529.263 558.943 529.551 558.503 529.803 558.158C529.819 558.662 529.798 559.291 529.734 560.045C529.534 562.385 528.942 565.6 528.056 569.21C526.283 576.432 523.394 584.984 520.358 590.868C516.593 598.163 513.734 603.31 511.467 606.876C509.173 610.484 507.581 612.314 506.393 613.152C505.83 613.549 505.418 613.678 505.108 613.709C504.798 613.739 504.459 613.684 504.019 613.498C503.558 613.304 503.05 612.996 502.404 612.568C502.242 612.461 502.069 612.344 501.888 612.222C501.387 611.885 500.822 611.504 500.225 611.14Z" fill="#26150F" stroke="black" stroke-width="3"/>
<path d="M483.126 601.697C483.203 601.558 483.338 601.342 483.575 601.026C483.801 600.725 484.1 600.358 484.449 599.933C485.363 598.817 486.611 597.293 487.727 595.466C489.358 592.796 490.605 589.656 491.591 587.173C491.714 586.862 491.834 586.561 491.95 586.272C492.207 585.629 492.441 585.063 492.654 584.578C492.693 585.353 492.676 586.282 492.599 587.3C492.381 590.184 491.71 593.448 490.754 595.518C489.476 598.285 488.488 600.164 487.678 601.408C486.841 602.694 486.323 603.09 486.07 603.202C485.963 603.248 485.826 603.301 485.333 603.06C485.07 602.931 484.769 602.748 484.379 602.498C484.281 602.435 484.177 602.367 484.067 602.296C483.782 602.111 483.462 601.903 483.126 601.697ZM492.334 582.704C492.334 582.704 492.338 582.71 492.346 582.724C492.337 582.712 492.333 582.705 492.334 582.704Z" fill="#26150F" stroke="black" stroke-width="3"/>
<path d="M296.616 547.456C297.178 547.78 297.523 547.882 297.716 547.905C297.856 547.921 297.902 547.897 297.955 547.861C298.054 547.796 298.234 547.625 298.482 547.204C298.727 546.79 298.982 546.23 299.278 545.488C299.526 544.862 299.791 544.135 300.089 543.318C301.186 540.308 302.728 536.075 305.552 531.182C308.687 525.753 313.098 521.217 316.426 517.794C316.627 517.587 316.824 517.385 317.016 517.186C318.756 515.393 320.048 514.017 320.735 512.969C320.952 512.638 321.061 512.41 321.114 512.266C320.996 512.238 320.788 512.208 320.45 512.222C319.868 512.247 319.089 512.394 318.131 512.684C316.222 513.263 313.83 514.338 311.305 515.748C306.228 518.584 300.919 522.6 298.133 526.204C294.554 530.832 292.226 534.236 290.852 536.811C289.458 539.424 289.176 540.953 289.331 541.921C289.47 542.791 290.016 543.521 291.301 544.407C292.147 544.991 293.125 545.524 294.287 546.158C294.992 546.542 295.764 546.964 296.616 547.456Z" fill="#26150F" stroke="black" stroke-width="3"/>
<path d="M443.259 369.057C443.544 369.478 443.62 369.714 443.637 369.812C443.642 369.844 443.642 369.844 443.64 369.845C443.639 369.845 443.638 369.845 443.637 369.847C443.605 369.901 443.491 370.047 443.155 370.28C442.826 370.507 442.373 370.758 441.761 371.058C441.248 371.31 440.649 371.584 439.975 371.892C437.482 373.03 433.961 374.639 429.943 377.363C425.481 380.386 421.835 384.401 419.093 387.419C418.927 387.602 418.764 387.782 418.605 387.957C417.164 389.539 416.071 390.702 415.23 391.341C415.138 391.411 415.055 391.47 414.98 391.52C414.979 391.49 414.978 391.459 414.977 391.426C414.973 390.973 415.057 390.34 415.258 389.533C415.656 387.929 416.451 385.88 417.527 383.687C419.69 379.277 422.834 374.594 425.731 372.03C429.083 369.062 431.651 367.052 433.678 365.788C435.727 364.511 437.067 364.099 437.998 364.096C438.833 364.094 439.539 364.42 440.363 365.23C441.243 366.094 442.107 367.357 443.259 369.057Z" fill="#26150F" stroke="black" stroke-width="3"/>
<path d="M514.001 403.773C514.004 403.839 514.005 403.896 514.005 403.945C513.805 403.951 513.53 403.938 513.147 403.899C512.804 403.864 512.403 403.811 511.946 403.75C510.222 403.522 507.708 403.189 504.57 403.339C501.074 403.506 497.707 404.557 495.236 405.328C495.082 405.376 494.931 405.423 494.784 405.469C494.074 405.69 493.482 405.868 492.994 405.995C493.011 405.977 493.027 405.959 493.045 405.941C493.753 405.189 494.823 404.309 496.107 403.434C498.702 401.665 501.869 400.119 504.166 399.687C506.949 399.163 508.96 398.92 510.421 398.91C511.902 398.901 512.625 399.135 512.994 399.375C513.296 399.572 513.529 399.883 513.697 400.593C513.88 401.364 513.933 402.362 514.001 403.773ZM513.983 404.185C513.983 404.185 513.984 404.177 513.989 404.164C513.986 404.18 513.984 404.186 513.983 404.185ZM492.264 407.014C492.264 407.014 492.265 407.013 492.265 407.011C492.265 407.013 492.265 407.014 492.264 407.014Z" fill="#26150F" stroke="black" stroke-width="3"/>
<path d="M396.221 597.768C396.28 597.737 396.33 597.71 396.371 597.686C396.277 597.509 396.128 597.278 395.903 596.966C395.701 596.686 395.454 596.365 395.174 596C394.114 594.62 392.569 592.61 391.13 589.817C389.526 586.706 388.753 583.265 388.185 580.74C388.15 580.582 388.115 580.428 388.081 580.277C387.917 579.552 387.775 578.951 387.641 578.464C387.634 578.488 387.627 578.511 387.62 578.535C387.323 579.525 387.096 580.892 386.98 582.441C386.746 585.572 386.991 589.088 387.765 591.294C388.702 593.966 389.498 595.829 390.22 597.099C390.952 598.386 391.516 598.896 391.909 599.095C392.23 599.257 392.616 599.304 393.315 599.095C394.074 598.868 394.965 598.415 396.221 597.768ZM396.569 597.546C396.568 597.546 396.562 597.552 396.554 597.562C396.566 597.552 396.57 597.546 396.569 597.546ZM388.159 577.323C388.159 577.323 388.158 577.324 388.157 577.325C388.158 577.324 388.159 577.323 388.159 577.323Z" fill="#26150F" stroke="black" stroke-width="3"/>
<path d="M319.371 563.571C319.39 563.588 319.409 563.606 319.43 563.624C319.6 563.777 319.813 563.956 320.059 564.164C321.026 564.976 322.507 566.221 323.929 568.049C325.521 570.097 326.417 572.524 327.049 574.238C327.091 574.351 327.131 574.46 327.17 574.565C327.194 574.629 327.217 574.691 327.24 574.752C327.331 574.129 327.378 573.393 327.374 572.596C327.361 570.32 326.926 567.923 326.202 566.58C325.255 564.824 324.497 563.659 323.858 562.916C323.214 562.167 322.817 561.993 322.627 561.95C322.461 561.912 322.181 561.91 321.591 562.19C320.998 562.473 320.315 562.929 319.371 563.571ZM318.988 563.866C318.989 563.866 318.994 563.861 319.001 563.851C318.991 563.861 318.987 563.866 318.988 563.866ZM319.032 563.216C319.03 563.213 319.029 563.211 319.029 563.211C319.029 563.211 319.03 563.213 319.032 563.216ZM327.984 576.407C327.984 576.406 327.981 576.402 327.974 576.395C327.98 576.403 327.984 576.407 327.984 576.407Z" fill="#26150F" stroke="black" stroke-width="3"/>
<path d="M510.946 388.852C510.863 388.846 510.767 388.837 510.657 388.824C510.4 388.795 510.094 388.75 509.743 388.698C508.389 388.498 506.358 388.198 503.846 388.318C501.038 388.452 498.345 389.354 496.412 390.001C496.288 390.043 496.167 390.083 496.05 390.122C495.891 390.175 495.741 390.225 495.599 390.271C496.092 389.789 496.714 389.266 497.425 388.743C499.444 387.255 501.877 385.985 503.599 385.641C505.777 385.205 507.326 385.01 508.434 385.007C509.558 385.003 510.033 385.199 510.239 385.345C510.398 385.458 510.572 385.664 510.705 386.264C510.844 386.891 510.891 387.701 510.946 388.852ZM510.942 389.274C510.942 389.273 510.943 389.267 510.946 389.256C510.944 389.269 510.942 389.274 510.942 389.274ZM511.37 388.855C511.372 388.855 511.373 388.855 511.373 388.855C511.374 388.855 511.372 388.855 511.37 388.855ZM493.788 390.729C493.788 390.729 493.791 390.729 493.795 390.73C493.791 390.729 493.788 390.729 493.788 390.729ZM494.511 391.648C494.51 391.653 494.51 391.655 494.509 391.655C494.509 391.655 494.51 391.653 494.511 391.648Z" fill="#26150F" stroke="black" stroke-width="3"/>
<path d="M381.772 602.582C381.724 602.513 381.668 602.435 381.602 602.346C381.449 602.138 381.257 601.896 381.036 601.618C380.186 600.545 378.911 598.936 377.759 596.7C376.471 594.202 375.905 591.419 375.499 589.421C375.473 589.293 375.448 589.168 375.423 589.047C375.39 588.883 375.357 588.728 375.327 588.583C375.156 589.25 375.014 590.05 374.916 590.928C374.637 593.42 374.754 596.162 375.316 597.825C376.028 599.929 376.634 601.368 377.185 602.33C377.744 603.304 378.151 603.618 378.38 603.724C378.558 603.805 378.823 603.852 379.41 603.668C380.022 603.475 380.747 603.11 381.772 602.582ZM382.135 602.368C382.134 602.368 382.129 602.372 382.121 602.38C382.131 602.372 382.135 602.368 382.135 602.368ZM381.986 602.948C381.987 602.95 381.987 602.951 381.987 602.951C381.987 602.951 381.987 602.95 381.986 602.948ZM374.818 586.785C374.818 586.785 374.819 586.787 374.822 586.791C374.819 586.787 374.818 586.785 374.818 586.785ZM375.975 586.952C375.979 586.948 375.98 586.947 375.98 586.946C375.98 586.946 375.979 586.948 375.975 586.952Z" fill="#26150F" stroke="black" stroke-width="3"/>
<path d="M334.299 557.781C334.806 557.818 335.048 557.766 335.141 557.731C335.173 557.72 335.173 557.72 335.172 557.718C335.171 557.717 335.171 557.716 335.172 557.714C335.203 557.659 335.272 557.487 335.306 557.08C335.338 556.681 335.329 556.164 335.283 555.484C335.245 554.914 335.182 554.258 335.112 553.52C334.852 550.792 334.484 546.938 334.834 542.096C335.222 536.721 336.875 531.555 338.118 527.672C338.194 527.437 338.268 527.206 338.34 526.98C338.99 524.941 339.45 523.413 339.583 522.366C339.598 522.251 339.607 522.149 339.613 522.06C339.587 522.073 339.559 522.088 339.53 522.104C339.136 522.327 338.63 522.717 338.031 523.293C336.841 524.441 335.465 526.153 334.103 528.182C331.365 532.26 328.881 537.325 328.109 541.115C327.215 545.503 326.758 548.731 326.678 551.119C326.596 553.532 326.909 554.898 327.372 555.706C327.787 556.43 328.424 556.878 329.537 557.187C330.725 557.517 332.251 557.633 334.299 557.781Z" fill="#26150F" stroke="black" stroke-width="3"/>
<path d="M364.697 415.166C362.639 418.732 361.602 423.114 360.814 426.446C360.737 426.773 360.662 427.09 360.589 427.395C360.156 429.197 359.809 430.462 359.436 431.179C359.432 431.186 359.429 431.192 359.425 431.199C359.022 430.845 358.462 430.134 357.876 428.988C357.18 427.625 356.548 425.842 356.151 423.836C355.353 419.801 355.548 415.089 357.802 411.185C360.056 407.28 364.039 404.756 367.933 403.429C369.869 402.77 371.729 402.425 373.257 402.347C374.525 402.282 375.414 402.408 375.926 402.576C375.518 403.114 374.745 403.848 373.574 404.92C373.494 404.993 373.413 405.067 373.331 405.142C370.853 407.41 367.297 410.662 364.697 415.166ZM376.158 402.205C376.158 402.205 376.158 402.206 376.156 402.209C376.157 402.206 376.158 402.205 376.158 402.205Z" fill="black" stroke="black" stroke-width="3"/>
<path d="M331.145 473.281C329.086 476.847 328.049 481.23 327.262 484.561C327.184 484.888 327.109 485.205 327.036 485.511C326.603 487.312 326.256 488.578 325.883 489.294C325.879 489.301 325.876 489.307 325.872 489.314C325.469 488.96 324.909 488.249 324.323 487.103C323.627 485.741 322.995 483.958 322.598 481.951C321.8 477.916 321.995 473.204 324.249 469.3C326.503 465.395 330.486 462.871 334.38 461.544C336.316 460.885 338.176 460.541 339.704 460.462C340.972 460.397 341.861 460.523 342.373 460.692C341.966 461.229 341.192 461.963 340.021 463.035C339.942 463.108 339.861 463.182 339.779 463.257C337.3 465.525 333.745 468.778 331.145 473.281ZM342.605 460.32C342.605 460.32 342.605 460.322 342.604 460.325C342.605 460.322 342.605 460.32 342.605 460.32Z" fill="black" stroke="black" stroke-width="3"/>
<ellipse rx="13.6697" ry="13.1658" transform="matrix(-0.866025 0.5 0.5 0.866025 404.61 462.451)" fill="white"/>
<ellipse cx="392.57" cy="483.304" rx="13.6697" ry="13.1658" transform="rotate(-90 392.57 483.304)" fill="white"/>
<path d="M390.188 460.444C391.161 461.006 392.066 462.299 392.446 464.033C392.818 465.733 392.634 467.655 391.681 469.306C390.728 470.956 389.156 472.077 387.497 472.604C385.806 473.143 384.233 473.005 383.26 472.443C382.349 471.917 381.699 470.855 381.551 469.332C381.404 467.811 381.785 465.96 382.81 464.184C383.835 462.408 385.248 461.153 386.639 460.52C388.032 459.886 389.277 459.918 390.188 460.444Z" fill="black" stroke="black" stroke-width="3"/>
<circle cx="347.965" cy="476.042" r="10.5394" transform="rotate(-60 347.965 476.042)" fill="black" stroke="black" stroke-width="3"/>
<circle cx="375.656" cy="428.08" r="10.5394" transform="rotate(-60 375.656 428.08)" fill="black" stroke="black" stroke-width="3"/>
<g filter="url(#filter2_d_540_2194)">
<path d="M466.808 274.719C472.944 278.262 476.233 284.288 476.847 291.516C477.463 298.778 475.362 307.222 470.687 315.32C466.006 323.427 459.986 329.222 453.614 332.063C447.288 334.883 440.565 334.824 434.221 331.162C427.878 327.499 424.465 321.706 423.744 314.818C423.018 307.879 425.027 299.768 429.708 291.661C434.383 283.563 440.646 277.521 447.243 274.424C453.809 271.341 460.673 271.177 466.808 274.719Z" fill="#F4842E" stroke="#D17F2F" stroke-width="3"/>
<path d="M424.781 291.831C423.346 291.003 422.854 289.168 423.683 287.733L423.929 287.306C424.758 285.871 426.592 285.38 428.027 286.208L431.052 287.955L427.806 293.577L424.781 291.831Z" fill="#B4B663"/>
<path d="M437.957 276.909C424.955 285.421 421.063 300.755 421.859 308.204C422.227 311.032 423.993 314.062 430.086 297.484C430.248 297.044 430.696 296.761 431.162 296.806C436.186 297.296 442.669 296.376 436.262 288.333C435.925 287.909 435.961 287.294 436.353 286.92C439.484 283.937 443.34 279.218 443.425 276.759C443.504 274.487 439.859 275.664 437.957 276.909Z" fill="#4E4A0B" stroke="#585414" stroke-width="2.5"/>
</g>
<g filter="url(#filter3_d_540_2194)">
<path d="M298.174 568.802C304.31 572.345 307.599 578.371 308.213 585.599C308.829 592.861 306.728 601.305 302.053 609.403C297.373 617.51 291.352 623.305 284.98 626.146C278.654 628.966 271.931 628.907 265.588 625.245C259.244 621.582 255.831 615.789 255.11 608.901C254.385 601.962 256.393 593.851 261.074 585.744C265.749 577.646 272.012 571.604 278.609 568.507C285.176 565.424 292.039 565.26 298.174 568.802Z" fill="#F4842E" stroke="#D17F2F" stroke-width="3"/>
<path d="M256.147 585.914C254.713 585.086 254.221 583.251 255.049 581.816L255.296 581.389C256.124 579.954 257.959 579.463 259.394 580.291L262.419 582.038L259.172 587.66L256.147 585.914Z" fill="#B4B663"/>
<path d="M269.323 570.992C256.321 579.504 252.43 594.838 253.226 602.287C253.593 605.115 255.36 608.145 261.452 591.567C261.614 591.127 262.062 590.844 262.528 590.889C267.552 591.379 274.036 590.459 267.628 582.416C267.291 581.993 267.327 581.377 267.719 581.003C270.85 578.02 274.706 573.301 274.792 570.842C274.871 568.57 271.225 569.747 269.323 570.992Z" fill="#4E4A0B" stroke="#585414" stroke-width="2.5"/>
</g>
</g>
<defs>
<filter id="filter0_d_540_2194" x="215.061" y="1250.79" width="89.8003" height="93.2764" filterUnits="userSpaceOnUse" color-interpolation-filters="sRGB">
<feFlood flood-opacity="0" result="BackgroundImageFix"/>
<feColorMatrix in="SourceAlpha" type="matrix" values="0 0 0 0 0 0 0 0 0 0 0 0 0 0 0 0 0 0 127 0" result="hardAlpha"/>
<feOffset dx="6" dy="11"/>
<feGaussianBlur stdDeviation="7.5"/>
<feComposite in2="hardAlpha" operator="out"/>
<feColorMatrix type="matrix" values="0 0 0 0 0 0 0 0 0 0 0 0 0 0 0 0 0 0 0.25 0"/>
<feBlend mode="normal" in2="BackgroundImageFix" result="effect1_dropShadow_540_2194"/>
<feBlend mode="normal" in="SourceGraphic" in2="effect1_dropShadow_540_2194" result="shape"/>
</filter>
<filter id="filter1_d_540_2194" x="9.95996" y="980.871" width="89.8003" height="93.2764" filterUnits="userSpaceOnUse" color-interpolation-filters="sRGB">
<feFlood flood-opacity="0" result="BackgroundImageFix"/>
<feColorMatrix in="SourceAlpha" type="matrix" values="0 0 0 0 0 0 0 0 0 0 0 0 0 0 0 0 0 0 127 0" result="hardAlpha"/>
<feOffset dx="6" dy="11"/>
<feGaussianBlur stdDeviation="7.5"/>
<feComposite in2="hardAlpha" operator="out"/>
<feColorMatrix type="matrix" values="0 0 0 0 0 0 0 0 0 0 0 0 0 0 0 0 0 0 0.25 0"/>
<feBlend mode="normal" in2="BackgroundImageFix" result="effect1_dropShadow_540_2194"/>
<feBlend mode="normal" in="SourceGraphic" in2="effect1_dropShadow_540_2194" result="shape"/>
</filter>
<filter id="filter2_d_540_2194" x="411.51" y="266.587" width="87.9412" height="94.9697" filterUnits="userSpaceOnUse" color-interpolation-filters="sRGB">
<feFlood flood-opacity="0" result="BackgroundImageFix"/>
<feColorMatrix in="SourceAlpha" type="matrix" values="0 0 0 0 0 0 0 0 0 0 0 0 0 0 0 0 0 0 127 0" result="hardAlpha"/>
<feOffset dx="6" dy="11"/>
<feGaussianBlur stdDeviation="7.5"/>
<feComposite in2="hardAlpha" operator="out"/>
<feColorMatrix type="matrix" values="0 0 0 0 0 0 0 0 0 0 0 0 0 0 0 0 0 0 0.25 0"/>
<feBlend mode="normal" in2="BackgroundImageFix" result="effect1_dropShadow_540_2194"/>
<feBlend mode="normal" in="SourceGraphic" in2="effect1_dropShadow_540_2194" result="shape"/>
</filter>
<filter id="filter3_d_540_2194" x="242.877" y="560.67" width="87.9409" height="94.9697" filterUnits="userSpaceOnUse" color-interpolation-filters="sRGB">
<feFlood flood-opacity="0" result="BackgroundImageFix"/>
<feColorMatrix in="SourceAlpha" type="matrix" values="0 0 0 0 0 0 0 0 0 0 0 0 0 0 0 0 0 0 127 0" result="hardAlpha"/>
<feOffset dx="6" dy="11"/>
<feGaussianBlur stdDeviation="7.5"/>
<feComposite in2="hardAlpha" operator="out"/>
<feColorMatrix type="matrix" values="0 0 0 0 0 0 0 0 0 0 0 0 0 0 0 0 0 0 0.25 0"/>
<feBlend mode="normal" in2="BackgroundImageFix" result="effect1_dropShadow_540_2194"/>
<feBlend mode="normal" in="SourceGraphic" in2="effect1_dropShadow_540_2194" result="shape"/>
</filter>
<clipPath id="clip0_540_2194">
<rect width="500" height="2308" fill="white"/>
</clipPath>
</defs>
</svg>
